<?xml version="1.0" encoding="UTF-8"?><!DOCTYPE svg PUBLIC "-//W3C//DTD SVG 1.1//EN" "http://www.w3.org/Graphics/SVG/1.1/DTD/svg11.dtd"><svg xmlns="http://www.w3.org/2000/svg" xmlns:xlink="http://www.w3.org/1999/xlink"><symbol id="github" viewBox="0 0 16 16"><path d="M8 0C3.58 0 0 3.582 0 8c0 3.535 2.292 6.533 5.47 7.59.4.075.547-.172.547-.385 0-.19-.007-.693-.01-1.36-2.226.483-2.695-1.073-2.695-1.073-.364-.924-.89-1.17-.89-1.17-.725-.496.056-.486.056-.486.803.056 1.225.824 1.225.824.714 1.223 1.873.87 2.33.665.072-.517.278-.87.507-1.07-1.777-.2-3.644-.888-3.644-3.953 0-.873.31-1.587.823-2.147-.09-.202-.36-1.015.07-2.117 0 0 .67-.215 2.2.82.64-.178 1.32-.266 2-.27.68.004 1.36.092 2 .27 1.52-1.035 2.19-.82 2.19-.82.43 1.102.16 1.915.08 2.117.51.56.82 1.274.82 2.147 0 3.073-1.87 3.75-3.65 3.947.28.24.54.73.54 1.48 0 1.07-.01 1.93-.01 2.19 0 .21.14.46.55.38C13.71 14.53 16 11.53 16 8c0-4.418-3.582-8-8-8"/></symbol><symbol id="mytimetable" viewBox="0 0 791.8 791.8">
<g>
	<path d="M395.9,475l-236.2-72.7v71.5v49.9c0,56.1,105.8,101.6,236.3,101.6c130.5,0,236.3-45.5,236.3-101.6c0-0.4-0.1-0.9-0.2-1.3
		V402.3L395.9,475z"/>
	<path d="M0,318.7l84.4,30.2l7.2-15.4l31-2.6l4.4,4.6l-26.6,6.3l-3.9,11.5c0,0-60.1,125.6-51.3,187c0,0,37.5,22.4,75,0l10-168v-14
		l55.8-12.6l-3.9,9.7L140.5,369l19.2,6.9l236.2,72.7l236.2-72.7l159.7-57.1L395.9,166.4L0,318.7z"/>
</g>
</symbol><symbol id="swift" viewBox="0 0 16 16">
<path id="Fill-62" d="M12.3,9.2c-0.8-0.7-0.5-0.7-1.3-1.1c0,0-3.6-2.2-7.5-6.2C3.4,1.8,5.5,5,8,7.7C6.9,7,3.6,4.6,1.5,2.7
	C1.8,3.2,2.1,3.6,2.4,4c1.7,2.2,4,4.9,6.7,7c0.6,0.7,0.8,0.8,1.7,1.4c2.4,1.7,3.6,1.2,3.7,0.9l0,0C14.6,12.8,14.5,11.2,12.3,9.2"/>
<path id="Fill-63" d="M9.8,0.6c1.6,2.2,2.3,4.8,1.7,7.1c-1,3.8-5.4,5.3-9.7,3.2C1.2,10.6,0.6,10.2,0,9.8c1.1,1.8,2.9,3.4,5,4.3
	c4.4,1.9,8.8,0.3,9.8-3.6C15.6,6.9,13.5,2.8,9.8,0.6"/>
<path id="Fill-64" d="M11.9,14.1c0.8-0.5,2.8-1.3,3.9,0.8c0.2,0.5,0.7-1.9-1.1-4.2C13,8.6,13.3,12,13.3,12L11.9,14.1z"/>
</symbol></svg>